<?xml version="1.0" standalone="no"?>
<!DOCTYPE svg PUBLIC "-//W3C//DTD SVG 1.1//EN" "http://www.w3.org/Graphics/SVG/1.1/DTD/svg11.dtd" >
<svg xmlns="http://www.w3.org/2000/svg" xmlns:xlink="http://www.w3.org/1999/xlink" version="1.1">
<metadata>
Created by FontForge 20201107 at Fri Jan  1 02:30:17 1904
 By 
(c) 1994, Howard M. Berlin, Ltd. ALL RIGHTS RESERVED WORLDWIDE.
</metadata>
<defs>
<font id="TorahSofer" horiz-adv-x="2937" >
  <font-face 
    font-family="Torah Sofer"
    font-weight="500"
    font-stretch="normal"
    units-per-em="2048"
    panose-1="4 11 6 0 0 0 0 0 0 0"
    ascent="1638"
    descent="-410"
    x-height="1348"
    bbox="-25 -909 1745 2335"
    underline-thickness="50"
    underline-position="-125"
    unicode-range="U+0008-00A5"
  />
<missing-glyph horiz-adv-x="1536" 
d="M256 0v1280h1024v-1280h-1024zM1248 32v1216h-960v-1216h960z" />
    <glyph glyph-name=".notdef" unicode="&#xa5;" horiz-adv-x="1536" 
d="M256 0v1280h1024v-1280h-1024zM1248 32v1216h-960v-1216h960z" />
    <glyph glyph-name=".notdef" unicode="&#xe01e;" horiz-adv-x="1536" 
d="M256 0v1280h1024v-1280h-1024zM1248 32v1216h-960v-1216h960z" />
    <glyph glyph-name=".notdef" unicode="&#x25ca;" horiz-adv-x="1536" 
d="M256 0v1280h1024v-1280h-1024zM1248 32v1216h-960v-1216h960z" />
    <glyph glyph-name=".notdef" unicode="&#x2260;" horiz-adv-x="1536" 
d="M256 0v1280h1024v-1280h-1024zM1248 32v1216h-960v-1216h960z" />
    <glyph glyph-name=".notdef" unicode="&#x2248;" horiz-adv-x="1536" 
d="M256 0v1280h1024v-1280h-1024zM1248 32v1216h-960v-1216h960z" />
    <glyph glyph-name=".notdef" unicode="&#x222b;" horiz-adv-x="1536" 
d="M256 0v1280h1024v-1280h-1024zM1248 32v1216h-960v-1216h960z" />
    <glyph glyph-name=".notdef" unicode="&#x221e;" horiz-adv-x="1536" 
d="M256 0v1280h1024v-1280h-1024zM1248 32v1216h-960v-1216h960z" />
    <glyph glyph-name=".notdef" unicode="&#x221a;" horiz-adv-x="1536" 
d="M256 0v1280h1024v-1280h-1024zM1248 32v1216h-960v-1216h960z" />
    <glyph glyph-name=".notdef" unicode="&#x2211;" horiz-adv-x="1536" 
d="M256 0v1280h1024v-1280h-1024zM1248 32v1216h-960v-1216h960z" />
    <glyph glyph-name=".notdef" unicode="&#x220f;" horiz-adv-x="1536" 
d="M256 0v1280h1024v-1280h-1024zM1248 32v1216h-960v-1216h960z" />
    <glyph glyph-name=".notdef" unicode="&#x2202;" horiz-adv-x="1536" 
d="M256 0v1280h1024v-1280h-1024zM1248 32v1216h-960v-1216h960z" />
    <glyph glyph-name=".notdef" unicode="&#x2122;" horiz-adv-x="1536" 
d="M256 0v1280h1024v-1280h-1024zM1248 32v1216h-960v-1216h960z" />
    <glyph glyph-name=".notdef" unicode="&#x20ac;" horiz-adv-x="1536" 
d="M256 0v1280h1024v-1280h-1024zM1248 32v1216h-960v-1216h960z" />
    <glyph glyph-name=".notdef" unicode="&#x2044;" horiz-adv-x="1536" 
d="M256 0v1280h1024v-1280h-1024zM1248 32v1216h-960v-1216h960z" />
    <glyph glyph-name=".notdef" unicode="&#x2030;" horiz-adv-x="1536" 
d="M256 0v1280h1024v-1280h-1024zM1248 32v1216h-960v-1216h960z" />
    <glyph glyph-name=".notdef" unicode="&#x2026;" horiz-adv-x="1536" 
d="M256 0v1280h1024v-1280h-1024zM1248 32v1216h-960v-1216h960z" />
    <glyph glyph-name=".notdef" unicode="&#x3c0;" horiz-adv-x="1536" 
d="M256 0v1280h1024v-1280h-1024zM1248 32v1216h-960v-1216h960z" />
    <glyph glyph-name=".notdef" unicode="&#x3a9;" horiz-adv-x="1536" 
d="M256 0v1280h1024v-1280h-1024zM1248 32v1216h-960v-1216h960z" />
    <glyph glyph-name=".notdef" unicode="&#x394;" horiz-adv-x="1536" 
d="M256 0v1280h1024v-1280h-1024zM1248 32v1216h-960v-1216h960z" />
    <glyph glyph-name=".notdef" unicode="&#x192;" horiz-adv-x="1536" 
d="M256 0v1280h1024v-1280h-1024zM1248 32v1216h-960v-1216h960z" />
    <glyph glyph-name=".notdef" unicode="&#x178;" horiz-adv-x="1536" 
d="M256 0v1280h1024v-1280h-1024zM1248 32v1216h-960v-1216h960z" />
    <glyph glyph-name=".notdef" unicode="&#x131;" horiz-adv-x="1536" 
d="M256 0v1280h1024v-1280h-1024zM1248 32v1216h-960v-1216h960z" />
    <glyph glyph-name=".notdef" unicode="&#xff;" horiz-adv-x="1536" 
d="M256 0v1280h1024v-1280h-1024zM1248 32v1216h-960v-1216h960z" />
    <glyph glyph-name=".null" horiz-adv-x="0" 
 />
    <glyph glyph-name=".null" horiz-adv-x="0" 
 />
    <glyph glyph-name=".null" horiz-adv-x="0" 
 />
    <glyph glyph-name="nonmarkingreturn" unicode="&#x9;" horiz-adv-x="0" 
 />
    <glyph glyph-name="nonmarkingreturn" unicode="&#xa0;" horiz-adv-x="0" 
 />
    <glyph glyph-name="nonmarkingreturn" unicode="&#xd;" horiz-adv-x="0" 
 />
    <glyph glyph-name="space" unicode=" " horiz-adv-x="512" 
 />
    <glyph glyph-name="exclam" unicode="!" 
 />
    <glyph glyph-name="quotedbl" unicode="&#x22;" horiz-adv-x="717" 
d="M59 1303l189 155q84 -137 84 -246q0 -122 -111 -245q-9 79 -15 130t-17 76t-37 50.5t-93 79.5zM385 1303l188 155q84 -135 84 -248q0 -122 -106 -243q-7 48 -15 114.5t-19 91.5t-36.5 50t-95.5 80z" />
    <glyph glyph-name="numbersign" unicode="#" 
 />
    <glyph glyph-name="dollar" unicode="$" 
 />
    <glyph glyph-name="percent" unicode="%" 
 />
    <glyph glyph-name="ampersand" unicode="&#x26;" 
 />
    <glyph glyph-name="quotesingle" unicode="'" horiz-adv-x="379" 
d="M49 1303l188 155q84 -135 84 -248q0 -122 -106 -243q-7 48 -15 114.5t-19 91.5t-36.5 50t-95.5 80z" />
    <glyph glyph-name="parenleft" unicode="(" 
 />
    <glyph glyph-name="parenright" unicode=")" 
 />
    <glyph glyph-name="asterisk" unicode="*" 
 />
    <glyph glyph-name="plus" unicode="+" 
 />
    <glyph glyph-name="comma" unicode="," horiz-adv-x="1409" 
d="M180 922q-80 2 -104 10q-25 6 -25 39q0 22 12 76q0 61 39 225q31 65 56 82q18 -41 32 -51q11 -11 35 -11l660 2q131 0 217 -30.5t139 -102.5q53 -69 82 -192l53 -969h-1183zM807 922h-418q-63 0 -92 -19q-29 -18 -39 -51q-8 -37 -8 -102v-439l958 -2v248q-18 115 -43 180
q-22 68 -65 109t-113 59q-67 17 -180 17z" />
    <glyph glyph-name="hyphen" unicode="-" horiz-adv-x="512" 
 />
    <glyph glyph-name="period" unicode="." horiz-adv-x="688" 
d="M594 1020l-250 -250l-250 250l250 250zM594 250l-250 -250l-250 250l250 250z" />
    <glyph glyph-name="slash" unicode="/" horiz-adv-x="1475" 
d="M463 1612l-12 -15q-11 -51 -17 -79q-8 -29 -10 -58q-4 -26 -4 -55q-2 -31 -2 -119l-35 -2q2 80 6 139q2 62 4 72q2 8 13 37q8 27 16 61l-4 15v4q-2 4 -4 6l2 29q2 4 4 10t2 8l8 8q8 4 12 8l13 2q2 -2 4 -2v-4q2 0 6 -4q2 -2 2 -4t2 -6q2 -6 2 -8l4 -15q0 -2 -6 -16z
M565 -129q4 -70 8 -104q9 -132 21 -211q10 -80 19.5 -123t11.5 -47q-41 -52 -76 -97t-57 -77q-25 -33 -50 -62q-22 -27 -24 -27l28 889v158l-2 110q-2 55 -6 183q-4 180 -8 321l-4 140q0 12 -12 12h-19q-12 0 -22 -2l-193 -6h-37q-69 0 -90 8q-20 8 -20 41q0 16 10 72
q0 16 6 46.5t19 69.5q10 39 26 107q29 59 49 76q23 -45 33 -54q8 -6 35 -6h31l90 -2q-19 92 -27 127t-22 64q-13 28 -45 94l-17 10q-4 2 -6 8q-2 4 -6 8q-2 7 -6 9l2 16q2 4 2 6v8q0 9 6 9q0 2 2 4q0 2 2 2h10q6 0 15 -4q4 0 12 -9q0 -2 2 -6q4 -6 6 -10l8 -27v-10l-2 -12
q17 -37 33 -62.5t27 -58.5q8 -31 41 -166l14 -2l70 2q22 94 34 146q13 51 19 63t14 26.5t29 61.5l-2 14v11l8 28q2 4 4 10.5t4 6.5q0 8 10 8q11 4 15 4h10q0 -2 4 -6q2 0 4 -2q2 -4 2 -6v-11q-1 -2 -1 -3q0 -2 1 -3v-14q0 -2 -6 -14l-8 -13l-16 -12q-23 -49 -37 -86
q-17 -37 -27 -72q-8 -34 -25 -137l117 2q37 0 60 -14q16 -17 24 -82q4 -27 8 -92v-66q-1 -24 -2 -51q-11 -29 -45 -36t-121 -7l11 -129q1 -39 3 -87q1 -49 2 -96q0 -47 2 -118q2 -72 3 -150l2 -165q2 6 95.5 50t199.5 109.5t220 180.5t194 276q0 37 -9 51q-10 15 -36 45
l-39 11q-111 40 -156 67q-45 29 -45 59q0 19 14 48q17 26 37 61q21 35 43 78q23 43 37 90q16 -55 104 -90l35 -12q96 -37 135 -80q39 -41 39 -101q-1 -152 -11.5 -233.5t-34 -126t-72.5 -96.5q-100 -148 -219 -247.5t-228.5 -154.5t-186 -76.5t-104.5 -29.5v-203z" />
    <glyph glyph-name="zero" unicode="0" horiz-adv-x="512" 
 />
    <glyph glyph-name="one" unicode="1" horiz-adv-x="512" 
 />
    <glyph glyph-name="two" unicode="2" horiz-adv-x="512" 
 />
    <glyph glyph-name="three" unicode="3" horiz-adv-x="512" 
 />
    <glyph glyph-name="four" unicode="4" horiz-adv-x="512" 
 />
    <glyph glyph-name="five" unicode="5" horiz-adv-x="512" 
 />
    <glyph glyph-name="six" unicode="6" horiz-adv-x="512" 
 />
    <glyph glyph-name="seven" unicode="7" horiz-adv-x="512" 
 />
    <glyph glyph-name="eight" unicode="8" horiz-adv-x="512" 
 />
    <glyph glyph-name="nine" unicode="9" horiz-adv-x="512" 
 />
    <glyph glyph-name="colon" unicode=":" 
 />
    <glyph glyph-name="semicolon" unicode=";" horiz-adv-x="1425" 
d="M1249 932q2 -84 4 -203q2 -117 9 -354q6 -238 8 -277q0 -41 2 -90q8 -293 31 -463q24 -172 34 -192q-18 -23 -63 -80q-45 -61 -70 -92q-24 -35 -49 -62q-22 -28 -25 -28l27 889l-2 18q2 6 4 6v4q0 15 -2 127q-2 115 -6 295t-8 322q-2 139 -4 139q-2 22 -15.5 30.5
t-56.5 8.5l-920 4q-61 0 -79.5 6t-18.5 29q0 12 14 78q0 61 39 225q31 65 56 82q18 -41 32 -51q11 -11 35 -11l992 -2q38 0 59 -14q16 -16 24 -82q11 -61 19 -233q-4 -7 -6 -15t-17 -10q-12 -2 -47 -4z" />
    <glyph glyph-name="less" unicode="&#x3c;" 
 />
    <glyph glyph-name="equal" unicode="=" horiz-adv-x="922" 
d="M836 1094h-750v213h750v-213z" />
    <glyph glyph-name="greater" unicode="&#x3e;" 
 />
    <glyph glyph-name="question" unicode="?" 
 />
    <glyph glyph-name="at" unicode="@" 
 />
    <glyph glyph-name="A" unicode="A" horiz-adv-x="0" 
 />
    <glyph glyph-name="B" unicode="B" 
 />
    <glyph glyph-name="C" unicode="C" 
 />
    <glyph glyph-name="D" unicode="D" 
 />
    <glyph glyph-name="E" unicode="E" 
 />
    <glyph glyph-name="F" unicode="F" 
 />
    <glyph glyph-name="G" unicode="G" 
 />
    <glyph glyph-name="H" unicode="H" 
 />
    <glyph glyph-name="I" unicode="I" 
 />
    <glyph glyph-name="J" unicode="J" 
 />
    <glyph glyph-name="K" unicode="K" 
 />
    <glyph glyph-name="L" unicode="L" 
 />
    <glyph glyph-name="M" unicode="M" 
 />
    <glyph glyph-name="N" unicode="N" 
 />
    <glyph glyph-name="O" unicode="O" 
 />
    <glyph glyph-name="P" unicode="P" 
 />
    <glyph glyph-name="Q" unicode="Q" horiz-adv-x="0" 
 />
    <glyph glyph-name="R" unicode="R" 
 />
    <glyph glyph-name="S" unicode="S" 
 />
    <glyph glyph-name="T" unicode="T" 
 />
    <glyph glyph-name="U" unicode="U" 
 />
    <glyph glyph-name="V" unicode="V" 
 />
    <glyph glyph-name="W" unicode="W" 
 />
    <glyph glyph-name="X" unicode="X" 
 />
    <glyph glyph-name="Y" unicode="Y" 
 />
    <glyph glyph-name="Z" unicode="Z" horiz-adv-x="0" 
 />
    <glyph glyph-name="bracketleft" unicode="[" horiz-adv-x="1409" 
d="M1061 932l-928 2q-45 -62 -45 -88q0 -19 23 -25q20 -4 61 -4h55h47q123 0 182.5 -8t84.5 -27q22 -18 22 -55q0 -20 -10 -76q-12 -57 -23 -121q-8 -65 -8 -137q-47 60 -149 60l-47 -2h-35q-15 0 -29 -2q-92 0 -139 16q-51 12 -70 43q-18 27 -18 72q0 16 16 137
q15 119 15 217l-3 113q0 61 39 225q31 65 56 82q18 -41 32 -51q11 -11 35 -11l992 -2q38 0 59 -14q16 -16 24 -82q9 -55 19 -252q0 -43 4 -180q2 -139 10 -434l8 -295q5 -197 21 -348q12 -154 26.5 -226.5t18.5 -81.5q-33 -41 -117 -151.5t-90 -110.5l31 889l-2 19q2 6 4 6
v4l-10 411l-11 406q-8 41 -16 55q-6 17 -35 23q-28 4 -100 4z" />
    <glyph glyph-name="backslash" unicode="\" horiz-adv-x="512" 
 />
    <glyph glyph-name="bracketright" unicode="]" horiz-adv-x="860" 
d="M463 1612l-12 -15q-11 -51 -17 -79q-8 -29 -10 -58q-4 -26 -4 -55q-2 -31 -2 -119l-35 -2q2 80 6 139q2 62 4 72q2 8 13 37q8 27 16 61l-4 15v4q-2 4 -4 6l2 29q2 4 4 10t2 8l8 8q8 4 12 8l13 2q2 -2 4 -2v-4q2 0 6 -4q2 -2 2 -4t2 -6q2 -6 2 -8l4 -15q0 -2 -6 -16z
M332 1286q-19 92 -27 127t-22 64q-13 28 -45 94l-17 10q-4 2 -6 8q-2 4 -6 8q-2 7 -6 9l2 16q2 4 2 6v8q0 9 6 9q0 2 2 4q0 2 2 2h10q6 0 15 -4q4 0 12 -9q0 -2 2 -6q4 -6 6 -10l8 -27v-10l-2 -12q17 -37 33 -62.5t27 -58.5q8 -31 41 -166l14 -2l70 2q22 94 34 146
q13 51 19 63t14 26.5t29 61.5l-2 14v11l8 28q2 4 4 10.5t4 6.5q0 8 10 8q11 4 15 4h10q0 -2 4 -6q2 0 4 -2q2 -4 2 -6v-11q-1 -2 -1 -3q0 -2 1 -3v-14q0 -2 -6 -14l-8 -13l-16 -12q-23 -49 -37 -86q-17 -37 -27 -72q-8 -34 -25 -137l117 2q37 0 60 -14q16 -17 24 -82
q4 -27 8 -92q4 -68 9 -117q0 -43 4 -172q2 -131 10 -451l8 -319q4 -143 14 -274q11 -132 21 -211.5t20 -122.5q11 -43 11 -47q-39 -52 -74 -97q-37 -45 -59 -77q-25 -33 -50 -62q-22 -27 -24 -27l26 889l-2 19q2 6 4 6v4q0 14 -2 129q-2 113 -6 293t-8 321q-2 140 -4 140
q0 12 -12 12h-19q-10 0 -22 -2l-363 -6h-37q-69 0 -90 8q-20 8 -20 41q0 16 10 72q0 16 6 46.5t19 69.5q10 39 26 107q29 59 49 76q23 -45 33 -54q8 -6 35 -6h31z" />
    <glyph glyph-name="asciicircum" unicode="^" 
 />
    <glyph glyph-name="underscore" unicode="_" 
 />
    <glyph glyph-name="grave" unicode="`" horiz-adv-x="512" 
 />
    <glyph glyph-name="a" unicode="a" horiz-adv-x="1311" 
d="M944 682l78 129q0 42 -12 63q-15 23 -43 52l-45 14q-138 45 -191 80q-53 33 -53 72q0 22 13.5 48.5t43.5 76.5q31 49 56 100q26 49 47 108q20 -67 125 -108l43 -17q208 -81 208 -190q0 -41 -20 -84q-20 -45 -66 -115q-10 -16 -28 -48t-28.5 -52t-22.5 -41l-66 -125
l285 -227q-43 -76 -60 -117q-16 -41 -20 -76q-6 -35 -6 -104q-2 -72 -4 -129l-775 641l-102 -260q123 0 182 -8q60 -9 83.5 -27.5t23.5 -54.5q0 -19 -12.5 -78.5t-20.5 -120.5q-8 -64 -8 -135q-47 59 -150 59l-47 -2q-35 -2 -94 -2q-76 0 -119 8q-43 11 -57 31
q-16 18 -16 53q0 17 16 121q16 107 16 211q43 -55 156 -55l115 289l-330 272l172 442q18 -41 40.5 -86t37.5 -63q12 -19 32.5 -35t53.5 -45z" />
    <glyph glyph-name="b" unicode="b" horiz-adv-x="1597" 
d="M1219 311l-2 557v17v6l2 4q0 12 -15 23q-2 0 -18.5 4t-30.5 4h-1008q-59 0 -77 8q-21 6 -21 35q0 12 14 78q0 61 39 225q31 65 56 82q18 -41 32 -51q11 -11 35 -11l1000 2q24 0 51 -18q16 -16 24 -82q11 -68 25 -223q10 -180 23 -303q14 -121 26 -213q15 -93 27 -144h184
q-53 -55 -80 -90q-26 -35 -41 -61q-14 -27 -32.5 -82t-26.5 -78h-184h-1141q12 37 33 80q18 41 28 65q9 25 9 52q0 55 -48 168q45 -56 156 -56z" />
    <glyph glyph-name="c" unicode="c" horiz-adv-x="1409" 
d="M1212 557q-26 145 -63 221q-39 76 -119 111q-80 33 -223 33h2l-6 -2q-8 -2 -37 -2q-33 -3 -82 -3q-51 0 -295 7q-96 0 -141 -41q-47 -43 -47 -131l-21 -230q119 -53 207 -86q88 -35 195 -63q106 -31 194 -47q86 -15 156 -15q88 0 149 25q64 22 97 78q34 55 34 145z
M258 113q-77 77 -106 215l-5 598q-59 0 -77 8q-21 6 -21 35q0 12 14 78q0 61 39 225q31 65 56 82q18 -41 32 -51q11 -11 35 -11l660 2q131 0 217 -30.5t139 -102.5q53 -69 82 -192l37 -588q-85 -381 -361 -381h-165q-54 -1 -117 -2q-92 0 -162 8t-141.5 34.5t-155.5 72.5z
" />
    <glyph glyph-name="d" unicode="d" horiz-adv-x="1384" 
d="M1214 596q44 -141 64 -199q22 -69 37 -104q10 -37 12 -39q-51 -64 -84 -109t-72 -102q-41 -57 -43 -57l-2 891l-6 16t-19.5 27.5t-39.5 11.5l-914 2q-61 0 -79.5 6t-18.5 29q0 12 14 78q0 61 39 225q31 65 56 82q18 -41 32 -51q11 -11 35 -11l992 -2q38 0 59 -14
q16 -16 24 -82q9 -55 19 -252q-4 -4 -6 -12q-2 -10 -15 -10l-61 4q-25 0 -36 -24.5t-11 -41.5q0 -87 9 -159t15 -103z" />
    <glyph glyph-name="e" unicode="e" horiz-adv-x="512" 
 />
    <glyph glyph-name="f" unicode="f" horiz-adv-x="512" 
 />
    <glyph glyph-name="g" unicode="g" horiz-adv-x="819" 
d="M383 1284q2 80 6 139q2 62 4 72q2 8 13 37q8 27 16 61l-4 15v4q-2 4 -4 6l2 29q2 4 4 10t2 8l8 8q8 4 12 8l13 2q2 -2 4 -2v-4q2 0 6 -4q2 -2 2 -4t2 -6q2 -6 2 -8l4 -15q0 -2 -6 -16l-6 -12l-12 -15q-11 -51 -17 -79q-8 -29 -10 -58q-4 -26 -4 -55q-2 -31 -2 -119h35
q22 94 34 146q13 51 19 63t14 26.5t29 61.5l-2 14v11l8 28q2 4 4 10.5t4 6.5q0 8 10 8q11 4 15 4h10q0 -2 4 -6q2 0 4 -2q2 -4 2 -6q0 -15 2 -17v-14q0 -2 -8 -14q-6 -13 -8 -13l-16 -12q-21 -49 -37.5 -86t-26.5 -72q-8 -34 -25 -137l117 2q37 0 60 -14q16 -17 24 -82
q8 -59 19 -227q0 -27 -25 -31q-25 -6 -98 -6h16h-16q-115 -4 -115 -82q0 -49 41 -96l102 -115q54 -64 91 -107q34 -45 50.5 -67.5t26.5 -59.5q13 -39 15 -86q-6 -147 -29 -215q-23 -67 -80 -100l-115 233l-69 -233h-424q12 37 33 80q18 41 28 65q9 25 9 52q0 55 -48 168
q45 -56 156 -56h248h69q46 0 66 4q21 6 21 25q0 16 -29 70l-244 477q-20 37 -51 43h-4h4h-4h-154l-37 2q-18 2 -45 2q-28 2 -41 6q-12 2 -18 12q-6 8 -6 29q0 16 10 72q0 16 6 47q6 28 19 67q10 39 26 107q29 59 49 76q23 -45 33 -54q8 -6 35 -6h31l90 -2q-19 92 -27 127
t-22 64q-13 28 -45 94l-17 10q-4 2 -6 8q-2 4 -6 8q-2 7 -6 9l2 16q2 4 2 6v8q0 9 6 9q0 2 2 4q0 2 2 2h10q6 0 15 -4q4 0 12 -9q0 -2 2 -6q4 -6 6 -10l8 -27v-10l-2 -12q17 -37 33 -62.5t27 -58.5q8 -31 41 -166z" />
    <glyph glyph-name="h" unicode="h" horiz-adv-x="1384" 
d="M1114 922l-53 10l-914 2q-61 0 -79.5 6t-18.5 29q0 12 14 78q0 61 39 225q31 65 56 82q18 -41 32 -51q11 -11 35 -11l992 -2q38 0 59 -14q16 -16 24 -82q9 -55 19 -252q-4 -4 -6 -12q-2 -10 -15 -10l-61 4q14 -238 32.5 -381.5t37.5 -212.5q16 -72 20 -76
q-51 -64 -84 -109t-72 -102q-41 -57 -43 -57l-2 891v16l2 6l2 4q0 4 -16 19zM608 -31q-43 43 -119 43q-16 0 -34 -2l-47 -6q-35 -6 -95 -12q-49 -6 -84 -6q-18 0 -32 2q-43 6 -62 22q-18 19 -22 53v15q0 28 4 110v54v27q0 67 -8 126q41 -39 118 -39q21 0 43 2l47 7
q105 10 164 10h19q59 0 86 -17q24 -16 28 -53v-10q0 -23 -4 -68q-6 -59 -6 -123v-32q0 -49 4 -103z" />
    <glyph glyph-name="i" unicode="i" horiz-adv-x="1352" 
d="M115 -35q65 6 203.5 17.5t212.5 31.5t157 68t193 143q-209 35 -306.5 93t-130.5 139t-58.5 256.5t-61.5 300.5l-111 -2q-10 2 -37 2q-20 0 -33 4q-12 4 -16 12t-4 23q0 24 6 59q0 16 6 39q4 23 15 53q8 33 22 92q25 52 41 64q18 -39 29 -45q6 -4 26 -4h27l76 -2
q-17 86 -25 110q-6 25 -20.5 53.5t-32.5 71.5l-17 8q-10 15 -16 21l2 14q2 2 2 6v6q2 3 4 5l2 2q2 2 2 4h11q10 0 12 -2q2 0 8 -9q2 -2 4 -6t4 -6l6 -22v-9l-2 -10q17 -33 29 -51t14 -22q2 -7 13 -46q10 -38 28 -118l15 -2q4 137 6 157q2 21 8 39q6 19 14 60l-2 12q0 2 -2 4
q0 2 -2 4l2 25q2 4 4 10v4q0 2 11 8q4 0 10 6l8 2q2 0 2 -6q2 0 6 -2q2 -2 2 -4l2 -4v-8l4 -12l-2 -11q-4 -10 -8 -12l-8 -12q-14 -56 -18 -82q-7 -29 -9 -58q-2 -26 -2 -118h29q20 90 33 131q10 39 20 55t29 59l-2 13v8l6 24q0 5 4 9l2 4q0 8 8 8q4 2 6 2h9h8q2 0 2 -4
q2 0 4 -2v-6v-2t2 -4v-7v-12q0 -2 -4 -8q-4 -10 -8 -14l-17 -11q-12 -34 -26 -69q-17 -33 -25 -64q-6 -30 -18 -110l96 2q29 0 47 -13q14 -14 23 -67q6 -39 14 -191q0 -20 -20 -24q-19 -6 -80 -6l-164 2q28 -162 53 -298.5t66 -210t130 -117.5t263 -71q50 74 86.5 158.5
t55 146t18.5 68.5q16 57 16 186q0 35 -10 54q-13 16 -37 43l-39 12q-117 41 -160 67.5t-43 59.5q0 20 10 41q11 18 37 61q29 43 49 84q23 41 37 90q8 -24 45 -55q35 -31 60 -35q0 -2 35 -14q96 -37 133 -80q39 -43 39 -104l-5 -23q-92 -381 -124 -522q-82 -212 -190 -394
t-242 -322t-296.5 -219t-341.5 -79q56 139 56 332v46q-1 10 -2.5 27.5t-1.5 20.5z" />
    <glyph glyph-name="j" unicode="j" horiz-adv-x="512" 
 />
    <glyph glyph-name="k" unicode="k" horiz-adv-x="1409" 
d="M1389 309l-154 -309h-1155q12 37 33 80q18 41 28 65q9 25 9 52q0 55 -48 168q45 -56 156 -56h950v248q-18 115 -43 180q-22 68 -65 109t-113 59q-67 17 -180 17q-660 0 -660 4q-59 0 -77 8q-21 6 -21 35q0 12 14 78q0 61 39 225q31 65 56 82q18 -41 32 -51q11 -11 35 -11
l660 2q131 0 217 -30.5t139 -102.5q53 -69 82 -192z" />
    <glyph glyph-name="l" unicode="l" horiz-adv-x="1409" 
d="M1233 1165q6 -6 29 -37t51.5 -85.5t49.5 -130t21 -162.5q0 -15 -0.5 -23.5t-1.5 -19.5l-147 -707h-571q10 37 30 80q21 41 31 65q8 25 8 52q0 57 -47 168q47 -56 156 -56l192 -2q77 0 127 35q49 37 49 162q0 35 -2 53q-18 115 -43 180q-22 68 -65 109t-113 59
q-67 17 -180 17q-660 0 -660 4q-45 233 -61 395q-20 160 -20 278q0 84 8 156t20 125q10 55 35 141q23 84 35 129l-111 9q39 32 50.5 67t11.5 109h233l-61 -226q-4 -30 -21 -98q-14 -67 -28 -143q-17 -76 -25 -164q-12 -90 -12 -182q0 -119 24 -230l660 2q133 0 217 -30
q82 -33 131 -99z" />
    <glyph glyph-name="m" unicode="m" horiz-adv-x="1454" 
d="M492 969l30 2l107 323h256q130 0 216.5 -30.5t139.5 -102.5q53 -69 82 -192l66 -660l-154 -309h-756q-8 0 -8 6q0 8 18.5 36.5t22.5 37.5q20 41 29 65q10 25 10 52q0 55 -49 168q45 -56 155 -56h551v248q-18 115 -43 180q-22 68 -65 109t-113 59q-67 17 -180 17
q-202 -2 -278.5 -17t-111.5 -79t-57 -236l-73 -590q-164 0 -164 -8l90 614q39 262 51 262l-45 15q-135 47 -188 80q-56 32 -56 71q0 23 15 49q12 27 42.5 76t55.5 101q27 49 47 108q21 -68 125 -108l43 -17q209 -82 209 -190q0 -44 -20 -84z" />
    <glyph glyph-name="n" unicode="n" horiz-adv-x="819" 
d="M383 1284q2 80 6 139q2 62 4 72q2 8 13 37q8 27 16 61l-4 15v4q-2 4 -4 6l2 29q2 4 4 10t2 8l8 8q8 4 12 8l13 2q2 -2 4 -2v-4q2 0 6 -4q2 -2 2 -4t2 -6q2 -6 2 -8l4 -15q0 -2 -6 -16l-6 -12l-12 -15q-11 -51 -17 -79q-8 -29 -10 -58q-4 -26 -4 -55q-2 -31 -2 -119h35
q22 94 34 146q13 51 19 63t14 26.5t29 61.5l-2 14v11l8 28q2 4 4 10.5t4 6.5q0 8 10 8q11 4 15 4h10q0 -2 4 -6q2 0 4 -2q2 -4 2 -6q0 -15 2 -17v-14q0 -2 -8 -14q-6 -13 -8 -13l-16 -12q-21 -49 -37.5 -86t-26.5 -72q-8 -34 -25 -137l117 2q37 0 60 -14q16 -17 24 -82
q8 -59 19 -227q0 -27 -25 -31q-25 -6 -98 -6h16h-16q-115 -4 -115 -82q0 -49 41 -96l102 -115q54 -64 91 -107q34 -45 50.5 -67.5t26.5 -59.5q13 -39 15 -86q-6 -147 -29 -215q-23 -67 -80 -100h-608q12 37 33 80q18 41 28 65q9 25 9 52q0 55 -48 168q45 -56 156 -56h248h69
q46 0 66 4q21 6 21 25q0 16 -29 70l-244 477q-20 37 -51 43h-4h4h-4h-154l-37 2q-18 2 -45 2q-28 2 -41 6q-12 2 -18 12q-6 8 -6 29q0 16 10 72q0 16 6 47q6 28 19 67q10 39 26 107q29 59 49 76q23 -45 33 -54q8 -6 35 -6h31l90 -2q-19 92 -27 127t-22 64q-13 28 -45 94
l-17 10q-4 2 -6 8q-2 4 -6 8q-2 7 -6 9l2 16q2 4 2 6v8q0 9 6 9q0 2 2 4q0 2 2 2h10q6 0 15 -4q4 0 12 -9q0 -2 2 -6q4 -6 6 -10l8 -27v-10l-2 -12q17 -37 33 -62.5t27 -58.5q8 -31 41 -166z" />
    <glyph glyph-name="o" unicode="o" horiz-adv-x="1352" 
d="M754 547l301 192q61 40 61 111q0 37 -20 78q-13 16 -37 43l-39 12q-117 41 -160 67.5t-43 59.5q0 20 10 41q11 18 37 61q29 43 49 84q23 41 37 90q8 -24 45 -55q35 -31 60 -35q0 -2 35 -14q96 -37 133 -80q39 -43 39 -104q0 -232 -91 -330l-344 -238l-4 -4
q116 -19 260 -26q20 -4 80.5 -19t71.5 -69q10 -39 12 -86q-6 -148 -26 -215q-25 -68 -82 -101h-1049q12 37 33 78q20 43 29 68q10 22 10 51q0 55 -49 168q45 -56 155 -56h688h70q45 0 66 5q20 6 20 24q-7 33 -30 51t-49.5 25t-31.5 8q-70 23 -244.5 68t-246.5 82.5
t-112.5 119.5t-49.5 236h-4h4h-4h-154l-36 2q-19 0 -45 2q-27 0 -39 4q-15 4 -21 15q-6 8 -6 28q0 17 10 72q0 16 8 47q7 29 17 67.5t26 106.5q29 59 50 76q22 -45 32 -53q9 -7 35 -7h33l88 -2q-16 93 -27 127q-8 35 -20 64q-14 29 -45 94l-19 10q-2 2 -6 8q-2 5 -6 9
q-2 6 -6 8l2 16q2 4 2 6v9q0 8 6 8q0 2 2 4l2 2h11q8 0 16 -4q2 0 10 -8q0 -2 4 -7q2 -6 4 -10l9 -26v-11l-2 -12q18 -37 34 -61q17 -29 25 -60q8 -30 43 -166l12 -2q4 78 6 140q4 61 7 71q2 8 10 35q10 29 16 64l-4 14v4q-2 4 -2 6v29q2 4 4 10q2 4 2 8l8 8q9 5 13 9l14 2
q0 -2 2 -2v-4q2 0 6 -5q2 -2 2 -4t2 -8l2 -6l4 -14q0 -2 -6 -17l-6 -12l-10 -14q-12 -52 -19 -80q-6 -29 -10 -58q-4 -26 -4 -57q-2 -29 -2 -117h37q20 95 35 146q12 51 16 63q6 13 14 27q9 14 29 61l-2 15v10l8 29q2 4 6 10l2 6q0 8 11 8q10 4 14 4h10q0 -2 4 -6l4 -4t2 -4
q0 -14 3 -16v-15q0 -2 -7.5 -14t-9.5 -12l-14 -13q-23 -51 -37 -86q-18 -37 -27.5 -71.5t-25.5 -137.5l116 2q37 0 62 -14q14 -16 22 -82q9 -59 21 -227q-2 -27 -27 -31q-24 -6 -96 -6h14h-14h-170q-2 -18 -2 -51q0 -137 88 -218.5t240 -121.5z" />
    <glyph glyph-name="p" unicode="p" horiz-adv-x="1409" 
d="M63 1047q0 61 39 225q31 65 56 82q18 -41 32 -51q11 -11 35 -11l660 2q131 0 217 -30.5t139 -102.5q53 -69 82 -192l66 -660l-154 -309h-1155q12 37 33 80q18 41 28 65q9 25 9 52q0 55 -48 168q45 -56 156 -56h950v248q-18 115 -43 180q-22 68 -65 109t-113 59
q-67 17 -180 17h-676q-43 -60 -43 -84q0 -23 55 -23q21 0 37 2h51h48q122 0 181.5 -8t84.5 -27q22 -18 22 -55q0 -20 -12 -76q-10 -57 -20 -121q-9 -65 -9 -137q-47 60 -149 60l-47 -2q-25 -2 -68 -2q-90 0 -135 14q-49 12 -68.5 38.5t-19.5 71.5q0 21 10 94.5t17 131.5
q6 55 6 129z" />
    <glyph glyph-name="q" unicode="q" horiz-adv-x="1409" 
d="M418 705q0 -2 -16 -58.5t-28.5 -113.5t-23 -139.5t-10.5 -178.5q0 -89 12 -190q20 -222 30.5 -356.5t10.5 -205.5q0 -106 -23.5 -147.5t-123.5 -92t-140 -75.5q35 37 55.5 73.5t20.5 88.5q0 27 -10 67l-49 680q0 118 22 214t85.5 199t187.5 235zM1233 1165q0 -1 20.5 -28
t44 -69t43 -103t25.5 -136q16 -61 16 -122l-147 -707h-571q10 37 30 80q21 41 31 65q8 25 8 52q0 57 -47 168q47 -56 156 -56l192 -2q77 0 127 35q49 37 49 162q0 35 -2 53q-18 115 -43 180q-22 68 -65 109t-113 59q-67 17 -180 17q-660 0 -660 4q-61 0 -77 8q-21 6 -21 35
q0 12 14 78q0 61 39 225q31 65 56 82q18 -41 32 -51q11 -11 35 -11l660 2q134 0 217 -30q82 -33 131 -99z" />
    <glyph glyph-name="r" unicode="r" horiz-adv-x="1425" 
d="M225 1292l660 2q131 0 217 -30.5t139 -102.5q53 -69 82 -192q14 -340 45 -527q31 -186 43 -198q-37 -41 -117 -144q-80 -100 -86 -100v557q-18 115 -43 180q-22 68 -65 109t-113 59q-67 17 -180 17q-660 0 -660 4q-59 0 -77 8q-21 6 -21 35q0 12 14 78q0 61 39 225
q31 65 56 82q18 -41 32 -51q11 -11 35 -11z" />
    <glyph glyph-name="s" unicode="s" horiz-adv-x="1792" 
d="M226 973l-45 2q-24 2 -45 2q-28 2 -41 6q-12 2 -18 12q-6 8 -6 29q0 16 10 72q0 16 6 47q6 28 19 67q10 39 26 107q29 59 49 76q23 -45 33 -54q8 -6 35 -6h31l90 -2q-19 92 -27 127t-22 64q-13 28 -45 94l-17 10q-4 2 -6 8q-2 4 -6 8q-2 7 -6 9l2 16q2 4 2 6v8q0 9 6 9
q0 2 2 4q0 2 2 2h10q6 0 15 -4q4 0 12 -9q0 -2 2 -6q4 -6 6 -10l8 -27v-10l-2 -12q17 -37 33 -62.5t27 -58.5q8 -31 41 -166l14 -2q2 80 6 139q2 62 4 72q2 8 13 37q8 27 16 61l-4 15v4q-2 4 -4 6l2 29q2 4 4 10t2 8l8 8q8 4 12 8l13 2q2 -2 4 -2v-4q2 0 6 -4q2 -2 2 -4
t2 -6q2 -6 2 -8l4 -15q0 -2 -6 -16l-6 -12l-12 -15q-11 -51 -17 -79q-8 -29 -10 -58q-4 -26 -4 -55q-2 -31 -2 -119h35q22 94 34 146q13 51 19 63t14 26.5t29 61.5l-2 14v11l8 28q2 4 4 10.5t4 6.5q0 8 10 8q11 4 15 4h10q0 -2 4 -6q2 0 4 -2q2 -4 2 -6q0 -15 2 -17v-14
q0 -2 -8 -14q-6 -13 -8 -13l-16 -12q-21 -49 -37.5 -86t-26.5 -72q-8 -34 -25 -137l117 2q37 0 60 -14q16 -17 24 -82q8 -59 19 -227q0 -27 -25 -31q-25 -6 -98 -6h-101l140 -580q8 -32 51.5 -51t115.5 -24q70 68 128 174t89.5 212t31.5 178q0 11 -2 29q-11 20 -35 47
l-37 15q-112 51 -153 80q-39 28 -39 57v4q2 21 14 39q12 21 41 61q31 41 55 80q25 39 43 86q7 -26 41 -57q33 -35 58 -41q0 -2 33 -16q92 -43 126 -88q27 -37 27 -107q0 -183 -91 -379.5t-219 -369.5q88 10 179 38t184.5 79.5t174.5 126t139 171.5q18 34 18 69
q0 89 -113 134q-108 49 -151 82q-39 27 -39 57v4q0 17 17.5 44.5t39.5 60.5q25 31 49.5 71.5t45.5 88.5q12 -55 98 -99q24 -11 67 -30t60.5 -32t26 -32.5t8.5 -55.5q0 -52 -21 -169q-12 -269 -164.5 -454.5t-347.5 -285.5t-360 -145t-197 -45l-187 973h-242z" />
    <glyph glyph-name="t" unicode="t" horiz-adv-x="1409" 
d="M358 367v33q-1 12 -2 26l-73 512l-136 4q-59 0 -77 6q-21 4 -21 29q0 14 14 80q0 63 39 225q31 66 56 82q18 -41 32 -51q11 -10 35 -10l992 -3q40 0 59 -16q16 -14 24 -82q9 -51 19 -250q-4 -6 -6 -14t-15 -8l-61 4q14 -238 32.5 -381t37.5 -213q16 -72 20 -76
q-51 -63 -84 -108t-72 -103q-41 -57 -43 -57l-2 891v16l2 6l2 4q0 7 -16 19l-53 10q0 -2 -150 -2h-444l-80 2q-25 -147 -25 -203q0 -47 10.5 -86t37.5 -98q24 -61 73 -170q92 -143 139.5 -229t47.5 -117q0 -24 -19 -33q-18 -6 -63 -6h-500q14 42 33 80q18 41 29 65
q8 25 8 52q0 53 -47 168q42 -56 155 -56q52 0 72 11.5t20 46.5z" />
    <glyph glyph-name="u" unicode="u" horiz-adv-x="1434" 
d="M389 1016l105 -709l714 2v248q-18 115 -43 180q-22 68 -65 109t-113 59q-19 4 -25.5 9t-15.5 6.5t-39 1.5q-67 0 -119 8q-20 7 -20 35q0 14 14 77q0 62 39 226q14 18 30.5 47t27.5 35q35 -41 47.5 -48.5t58.5 -7.5q39 0 53 -3t27 -10.5t37 -16.5q86 -31 139 -103
q53 -69 82 -192l66 -660l-154 -309h-885q-8 0 -8 6q0 8 18.5 36.5t22.5 37.5q18 41 29 65q8 25 8 52q-1 183 -26 361.5t-56 322.5q-30 137 -31 137v0l-182 -2h-4q-54 0 -66 6q-11 2 -14 12q-6 8 -6 23q0 24 8 59q0 17 4 39q6 23 14 53q9 31 25 92q23 52 39 64q20 -39 29 -45
q6 -4 28 -4h25l76 -2q-17 86 -23 110q-6 25 -20.5 53.5t-34.5 71.5l-15 8q-10 15 -16 21l2 14q0 2 2 6v7q0 2 2 4t4 2q0 2 2 4h9q10 0 12 -2q2 0 10 -8q2 -2 4 -7q2 -4 4 -6l6 -22v-8l-2 -11q17 -32 27 -51q12 -18 14 -22q2 -7 15 -45q10 -39 28 -119l13 -2q6 137 8 157
q0 21 8 39q4 19 14 60l-2 12q-2 0 -2 4q-2 2 -2 4l2 25q0 4 2 10l2 4v0q0 3 9 8q4 0 10 6l10 2q2 0 2 -6l4 -2t4 -4q0 -4 2 -6v-6l4 -12l-4 -11q-4 -10 -6 -12l-10 -12q-12 -55 -19 -82q-6 -29 -6 -57q-2 -27 -2 -119h29q20 90 31 131q10 39 20 55q10 17 29 60l-2 12v8l6 25
l4 8t4 4q0 8 8 8q2 0 6 2h7h8q2 0 2 -4q2 0 4 -2q2 -4 2 -6v-2v-4q0 -4 2 -6v-13q0 -2 -4 -10q-6 -8 -10 -12l-15 -11q-14 -34 -28 -69q-17 -35 -23 -64q-8 -30 -20 -110l96 2q29 0 49 -12q14 -15 21 -68q6 -39 16 -191q0 -20 -21 -24q-20 -6 -81 -6h12l-12 2h-105z" />
    <glyph glyph-name="v" unicode="v" horiz-adv-x="758" 
d="M186 1294q6 -2 11.5 -4.5t11.5 -5.5l24 4h332q36 0 62 -14q16 -16 22 -82l6 -287q12 -266 23 -364q14 -142 29 -211q14 -72 18 -80q-55 -64 -129 -164q-36 -49 -55 -77.5t-23 -28.5l25 888q0 37 -23 47.5t-43 10.5l-287 2h-36q-52 0 -72 4q-21 2 -31 12q-8 8 -8 31
q0 18 10 74q0 16 6 47q7 30 19 69q8 39 26 107q31 63 50 76q23 -47 32 -54z" />
    <glyph glyph-name="w" unicode="w" horiz-adv-x="512" 
 />
    <glyph glyph-name="x" unicode="x" horiz-adv-x="1409" 
d="M143 932l4 2q-61 0 -79.5 6t-18.5 29q0 12 14 78q0 61 39 225q31 65 56 82q18 -41 32 -51q11 -11 35 -11l992 -2q38 0 59 -14q16 -16 24 -82q9 -55 19 -252q-4 -4 -6 -12q-2 -10 -15 -10l-61 4q14 -238 32.5 -381.5t37.5 -212.5q16 -72 20 -76q-51 -64 -84 -109t-72 -102
q-41 -57 -43 -57l-2 891v16l2 6l2 4q0 4 -16 19l-53 10l-780 2l-7 -19q-16 -45 -16 -106v-657q0 -64 -22 -101q-11 -16 -48 -49h-90q21 33 27 51q4 19 4 64v690q0 43 25 111q2 6 4 10q2 2 2 6z" />
    <glyph glyph-name="y" unicode="y" horiz-adv-x="795" 
d="M193 1348q20 -45 32 -54q8 -6 35 -6h31h364q37 0 60 -14q16 -17 24 -82q11 -68 19 -227v-50q-2 -8 -6 -26.5t-4 -24.5q-7 -30 -86 -178q-80 -147 -89 -178l76 354v17v8l2 4q0 33 -63 37h-359h-36q-52 0 -72 4q-21 2 -31 12q-8 8 -8 31q0 18 10 74q0 16 6 46.5t19 69.5
q10 39 26 107q31 63 50 76z" />
    <glyph glyph-name="z" unicode="z" horiz-adv-x="819" 
d="M383 1284q2 80 6 139q2 62 4 72q2 8 13 37q8 27 16 61l-4 15v4q-2 4 -4 6l2 29q2 4 4 10t2 8l8 8q8 4 12 8l13 2q2 -2 4 -2v-4q2 0 6 -4q2 -2 2 -4t2 -6q2 -6 2 -8l4 -15q0 -2 -6 -16l-6 -12l-12 -15q-11 -51 -17 -79q-8 -29 -10 -58q-4 -26 -4 -55q-2 -31 -2 -119h35
q22 94 34 146q13 51 19 63t14 26.5t29 61.5l-2 14v11l8 28q2 4 4 10.5t4 6.5q0 8 10 8q11 4 15 4h10q0 -2 4 -6q2 0 4 -2q2 -4 2 -6q0 -15 2 -17v-14q0 -2 -8 -14q-6 -13 -8 -13l-16 -12q-21 -49 -37.5 -86t-26.5 -72q-8 -34 -25 -137l117 2q37 0 60 -14q16 -17 24 -82
q8 -59 19 -227q0 -27 -25 -31q-25 -6 -98 -6h16h-16q-64 -2 -92 -27q-31 -22 -31 -61q0 -52 37 -90l102 -115q8 -10 78 -94t86 -119q14 -37 18 -107q-6 -155 -24 -219q-21 -63 -76 -96q-45 43 -72 82q-28 37 -39 72q-12 32 -12 71q0 27 4 55.5t13 63.5q8 37 18 86
q0 55 -31 98l-4 8.5t-20 38.5q-19 33 -41 78q-25 43 -123 232q-6 10 -8 18q-4 10 -11.5 16.5t-19.5 8.5h-4h4h-4h-154l-37 2q-18 2 -45 2q-28 2 -41 6q-12 2 -18 12q-6 8 -6 29q0 16 10 72q0 16 6 47q6 28 19 67q10 39 26 107q29 59 49 76q23 -45 33 -54q8 -6 35 -6h31
l90 -2q-19 92 -27 127t-22 64q-13 28 -45 94l-17 10q-4 2 -6 8q-2 4 -6 8q-2 7 -6 9l2 16q2 4 2 6v8q0 9 6 9q0 2 2 4q0 2 2 2h10q6 0 15 -4q4 0 12 -9q0 -2 2 -6q4 -6 6 -10l8 -27v-10l-2 -12q17 -37 33 -62.5t27 -58.5q8 -31 41 -166z" />
    <glyph glyph-name="braceleft" unicode="{" 
 />
    <glyph glyph-name="bar" unicode="|" 
 />
    <glyph glyph-name="braceright" unicode="}" 
 />
    <glyph glyph-name="asciitilde" unicode="~" 
 />
  </font>
</defs>
</svg>
